<?xml version="1.0" encoding="UTF-8"?>
<svg version="1.1" xmlns="http://www.w3.org/2000/svg" width="32" height="32">
<path d="M0 0 C4.73207559 1.43759259 8.55441251 3.88716076 12.70703125 6.53125 C13.94163086 7.29888672 13.94163086 7.29888672 15.20117188 8.08203125 C22.27096725 12.49992482 22.27096725 12.49992482 23.01953125 15.71875 C22.39453125 19.03125 22.39453125 19.03125 20.80859375 20.515625 C18.39439935 22.1367086 15.91677195 23.58388825 13.39453125 25.03125 C12.38519531 25.6809375 11.37585938 26.330625 10.3359375 27 C9.30339844 27.6496875 8.27085938 28.299375 7.20703125 28.96875 C6.24410156 29.57589844 5.28117188 30.18304687 4.2890625 30.80859375 C0.81123991 32.27763352 -1.02497501 32.11420686 -4.60546875 31.03125 C-6.04013355 28.1619204 -5.9330794 25.2994563 -6.12890625 22.125 C-6.4410584 19.6438291 -6.4410584 19.6438291 -9.60546875 18.03125 C-9.60546875 16.71125 -9.60546875 15.39125 -9.60546875 14.03125 C-8.61546875 13.37125 -7.62546875 12.71125 -6.60546875 12.03125 C-6.13616726 9.93281674 -6.13616726 9.93281674 -6.10546875 7.59375 C-6.00096643 4.95071211 -5.85921419 3.43672836 -4.44921875 1.18359375 C-2.60546875 0.03125 -2.60546875 0.03125 0 0 Z " fill="#FD10FB" transform="translate(9.60546875,-0.03125)"/>
<path d="M0 0 C4.79312934 1.27528582 8.58452984 3.6353011 12.77734375 6.234375 C14.01194336 6.96430664 14.01194336 6.96430664 15.27148438 7.70898438 C16.05330078 8.18787109 16.83511719 8.66675781 17.640625 9.16015625 C18.35130127 9.59368408 19.06197754 10.02721191 19.79418945 10.47387695 C21.46484375 11.921875 21.46484375 11.921875 22.32885742 13.96948242 C22.39617065 14.93591675 22.39617065 14.93591675 22.46484375 15.921875 C21.80484375 16.581875 21.14484375 17.241875 20.46484375 17.921875 C14.44056317 17.82818479 9.68696233 14.51962481 4.65234375 11.546875 C3.78158203 11.051875 2.91082031 10.556875 2.01367188 10.046875 C-4.40814833 6.30289876 -4.40814833 6.30289876 -5.53515625 2.921875 C-3.77728615 0.48038875 -3.06615712 -0.09448866 0 0 Z " fill="#FEB23B" transform="translate(9.53515625,0.078125)"/>
<path d="M0 0 C2.25367621 0.77258726 4.42827245 1.61420226 6.59765625 2.59765625 C4.09929291 5.16081864 1.87889 7.07150102 -1.40234375 8.59765625 C-4.71484375 8.28515625 -4.71484375 8.28515625 -7.40234375 7.59765625 C-7.73234375 6.27765625 -8.06234375 4.95765625 -8.40234375 3.59765625 C-3.70255517 -0.62010274 -3.70255517 -0.62010274 0 0 Z " fill="#3C63FC" transform="translate(12.40234375,23.40234375)"/>
<path d="M0 0 C1.98 0.66 3.96 1.32 6 2 C6 2.66 6 3.32 6 4 C4.02 4.99 2.04 5.98 0 7 C0 4.69 0 2.38 0 0 Z " fill="#F7AF43" transform="translate(4,20)"/>
<path d="M0 0 C1.98 0.99 3.96 1.98 6 3 C6 3.66 6 4.32 6 5 C4.02 5.66 2.04 6.32 0 7 C0 4.69 0 2.38 0 0 Z " fill="#4366F7" transform="translate(4,5)"/>
</svg>
