<svg xmlns="http://www.w3.org/2000/svg" xmlns:xlink="http://www.w3.org/1999/xlink" width="183" zoomAndPan="magnify" viewBox="0 0 137.25 31.5" height="42" preserveAspectRatio="xMidYMid meet" version="1.0"><defs><g/><clipPath id="ea379c7875"><path d="M 5.28125 8 L 37.765625 8 L 37.765625 26 L 5.28125 26 Z M 5.28125 8 " clip-rule="nonzero"/></clipPath><clipPath id="b4779a0ea3"><path d="M 9 4 L 25 4 L 25 31.007812 L 9 31.007812 Z M 9 4 " clip-rule="nonzero"/></clipPath><clipPath id="6a31af26ce"><path d="M 9 0 L 37.765625 0 L 37.765625 27 L 9 27 Z M 9 0 " clip-rule="nonzero"/></clipPath></defs><g clip-path="url(#ea379c7875)"><path fill="#ff0dff" d="M 16.3125 8.296875 L 9.769531 12.082031 L 6.050781 14.230469 L 5.964844 14.277344 C 5.5625 14.535156 5.292969 14.984375 5.292969 15.503906 C 5.292969 16.015625 5.5625 16.46875 5.972656 16.722656 L 6.058594 16.769531 L 9.773438 18.925781 L 16.320312 22.710938 C 16.402344 22.757812 16.480469 22.796875 16.554688 22.851562 L 20.832031 25.324219 C 21.480469 25.699219 22.234375 25.917969 23.042969 25.917969 C 23.660156 25.917969 24.25 25.789062 24.789062 25.550781 L 25.667969 25.039062 L 25.972656 24.867188 L 35.476562 19.371094 L 35.617188 19.289062 C 36.898438 18.515625 37.753906 17.105469 37.753906 15.496094 C 37.753906 14.101562 37.109375 12.855469 36.101562 12.050781 C 36.832031 12.660156 37.296875 13.585938 37.296875 14.613281 C 37.296875 16.46875 35.796875 17.96875 33.949219 17.96875 C 33.332031 17.96875 32.746094 17.800781 32.25 17.503906 L 28.929688 15.585938 Z M 16.3125 8.296875 " fill-opacity="1" fill-rule="evenodd"/></g><g clip-path="url(#b4779a0ea3)"><path fill="#3866ff" d="M 9.773438 26.496094 C 9.773438 26.523438 9.773438 26.554688 9.773438 26.582031 C 9.773438 29.027344 11.75 31.007812 14.191406 31.007812 C 14.941406 31.007812 15.65625 30.820312 16.273438 30.484375 L 16.503906 30.347656 L 24.78125 25.550781 C 24.246094 25.78125 23.652344 25.917969 23.035156 25.917969 C 22.226562 25.917969 21.476562 25.699219 20.824219 25.324219 L 16.550781 22.851562 L 16.554688 22.859375 C 16.476562 22.804688 16.394531 22.757812 16.3125 22.71875 Z M 16.3125 8.296875 L 9.773438 4.511719 L 9.773438 12.082031 Z M 16.3125 8.296875 " fill-opacity="1" fill-rule="evenodd"/></g><g clip-path="url(#6a31af26ce)"><path fill="#ffb638" d="M 16.3125 22.710938 L 9.773438 18.925781 L 9.773438 26.496094 Z M 9.773438 4.425781 C 9.773438 4.453125 9.773438 4.484375 9.773438 4.511719 L 16.320312 8.296875 L 28.921875 15.589844 L 32.222656 17.496094 C 32.726562 17.800781 33.316406 17.976562 33.949219 17.976562 C 35.796875 17.976562 37.296875 16.472656 37.296875 14.621094 C 37.296875 13.355469 36.597656 12.25 35.5625 11.679688 C 35.574219 11.683594 35.597656 11.699219 35.609375 11.707031 L 25.964844 6.136719 L 16.503906 0.660156 L 16.273438 0.523438 C 15.65625 0.1875 14.941406 0 14.191406 0 C 11.742188 0 9.773438 1.980469 9.773438 4.425781 Z M 35.542969 11.671875 C 35.542969 11.671875 35.546875 11.671875 35.546875 11.679688 C 35.546875 11.679688 35.542969 11.679688 35.542969 11.671875 Z M 35.542969 11.671875 " fill-opacity="1" fill-rule="evenodd"/></g><g fill="#ffffff" fill-opacity="1"><g transform="translate(40.370135, 20.671875)"><g><path d="M 4.40625 0.140625 C 3.71875 0.140625 3.101562 0.0546875 2.5625 -0.109375 C 2.03125 -0.273438 1.582031 -0.5 1.21875 -0.78125 C 0.863281 -1.0625 0.59375 -1.363281 0.40625 -1.6875 L 1.484375 -3.015625 L 1.65625 -3.015625 C 1.945312 -2.566406 2.320312 -2.210938 2.78125 -1.953125 C 3.25 -1.691406 3.789062 -1.5625 4.40625 -1.5625 C 4.925781 -1.5625 5.320312 -1.671875 5.59375 -1.890625 C 5.863281 -2.109375 6 -2.414062 6 -2.8125 C 6 -3.039062 5.953125 -3.234375 5.859375 -3.390625 C 5.773438 -3.554688 5.632812 -3.695312 5.4375 -3.8125 C 5.238281 -3.925781 4.96875 -4.019531 4.625 -4.09375 L 3.34375 -4.390625 C 2.457031 -4.597656 1.796875 -4.9375 1.359375 -5.40625 C 0.921875 -5.882812 0.703125 -6.5 0.703125 -7.25 C 0.703125 -7.8125 0.84375 -8.304688 1.125 -8.734375 C 1.40625 -9.160156 1.8125 -9.488281 2.34375 -9.71875 C 2.882812 -9.957031 3.53125 -10.078125 4.28125 -10.078125 C 5.039062 -10.078125 5.691406 -9.972656 6.234375 -9.765625 C 6.785156 -9.566406 7.25 -9.257812 7.625 -8.84375 L 6.65625 -7.515625 L 6.484375 -7.515625 C 6.203125 -7.804688 5.878906 -8.023438 5.515625 -8.171875 C 5.148438 -8.328125 4.738281 -8.40625 4.28125 -8.40625 C 3.738281 -8.40625 3.328125 -8.304688 3.046875 -8.109375 C 2.765625 -7.921875 2.625 -7.660156 2.625 -7.328125 C 2.625 -7.015625 2.722656 -6.765625 2.921875 -6.578125 C 3.117188 -6.390625 3.457031 -6.242188 3.9375 -6.140625 L 5.25 -5.875 C 6.21875 -5.664062 6.914062 -5.316406 7.34375 -4.828125 C 7.78125 -4.347656 8 -3.71875 8 -2.9375 C 8 -2.3125 7.863281 -1.769531 7.59375 -1.3125 C 7.332031 -0.851562 6.929688 -0.492188 6.390625 -0.234375 C 5.847656 0.015625 5.1875 0.140625 4.40625 0.140625 Z M 4.40625 0.140625 "/></g></g></g><g fill="#ffffff" fill-opacity="1"><g transform="translate(48.90917, 20.671875)"><g><path d="M 5.171875 -1.78125 L 5.65625 -0.390625 C 5.457031 -0.222656 5.203125 -0.09375 4.890625 0 C 4.585938 0.09375 4.238281 0.140625 3.84375 0.140625 C 3.03125 0.140625 2.410156 -0.078125 1.984375 -0.515625 C 1.566406 -0.960938 1.359375 -1.609375 1.359375 -2.453125 L 1.359375 -6.015625 L 0.21875 -6.015625 L 0.21875 -7.5 L 1.359375 -7.5 L 1.359375 -8.96875 L 3.25 -9.265625 L 3.25 -7.5 L 5.375 -7.5 L 5.375 -6.015625 L 3.25 -6.015625 L 3.25 -2.578125 C 3.25 -2.210938 3.328125 -1.941406 3.484375 -1.765625 C 3.640625 -1.597656 3.863281 -1.515625 4.15625 -1.515625 C 4.488281 -1.515625 4.78125 -1.601562 5.03125 -1.78125 Z M 5.171875 -1.78125 "/></g></g></g><g fill="#ffffff" fill-opacity="1"><g transform="translate(54.735572, 20.671875)"><g><path d="M 1.078125 0 L 1.078125 -7.5 L 2.90625 -7.5 L 2.90625 -6.390625 L 3.046875 -6.359375 C 3.234375 -6.773438 3.472656 -7.078125 3.765625 -7.265625 C 4.054688 -7.460938 4.414062 -7.5625 4.84375 -7.5625 C 5.269531 -7.5625 5.59375 -7.488281 5.8125 -7.34375 L 5.5 -5.71875 L 5.34375 -5.703125 C 5.226562 -5.742188 5.113281 -5.773438 5 -5.796875 C 4.882812 -5.828125 4.742188 -5.84375 4.578125 -5.84375 C 4.054688 -5.84375 3.65625 -5.65625 3.375 -5.28125 C 3.101562 -4.914062 2.96875 -4.320312 2.96875 -3.5 L 2.96875 0 Z M 1.078125 0 "/></g></g></g><g fill="#ffffff" fill-opacity="1"><g transform="translate(60.616362, 20.671875)"><g><path d="M 7.40625 -3.328125 L 2.59375 -3.328125 C 2.644531 -2.671875 2.828125 -2.191406 3.140625 -1.890625 C 3.460938 -1.597656 3.898438 -1.453125 4.453125 -1.453125 C 4.878906 -1.453125 5.222656 -1.53125 5.484375 -1.6875 C 5.753906 -1.851562 5.972656 -2.097656 6.140625 -2.421875 L 6.28125 -2.421875 L 7.53125 -1.625 C 7.289062 -1.101562 6.921875 -0.675781 6.421875 -0.34375 C 5.929688 -0.0195312 5.273438 0.140625 4.453125 0.140625 C 3.671875 0.140625 3 -0.00390625 2.4375 -0.296875 C 1.875 -0.585938 1.4375 -1.023438 1.125 -1.609375 C 0.820312 -2.191406 0.671875 -2.90625 0.671875 -3.75 C 0.671875 -4.601562 0.832031 -5.320312 1.15625 -5.90625 C 1.476562 -6.488281 1.910156 -6.921875 2.453125 -7.203125 C 3.003906 -7.492188 3.625 -7.640625 4.3125 -7.640625 C 5.375 -7.640625 6.1875 -7.359375 6.75 -6.796875 C 7.3125 -6.234375 7.59375 -5.410156 7.59375 -4.328125 C 7.59375 -3.929688 7.578125 -3.625 7.546875 -3.40625 Z M 5.796875 -4.546875 C 5.773438 -5.109375 5.640625 -5.519531 5.390625 -5.78125 C 5.148438 -6.039062 4.789062 -6.171875 4.3125 -6.171875 C 3.351562 -6.171875 2.789062 -5.628906 2.625 -4.546875 Z M 5.796875 -4.546875 "/></g></g></g><g fill="#ffffff" fill-opacity="1"><g transform="translate(68.767883, 20.671875)"><g><path d="M 2.921875 0.140625 C 2.441406 0.140625 2.023438 0.0507812 1.671875 -0.125 C 1.316406 -0.300781 1.046875 -0.554688 0.859375 -0.890625 C 0.671875 -1.234375 0.578125 -1.648438 0.578125 -2.140625 C 0.578125 -2.578125 0.671875 -2.945312 0.859375 -3.25 C 1.046875 -3.550781 1.335938 -3.796875 1.734375 -3.984375 C 2.140625 -4.179688 2.660156 -4.332031 3.296875 -4.4375 C 3.753906 -4.507812 4.097656 -4.585938 4.328125 -4.671875 C 4.554688 -4.765625 4.710938 -4.863281 4.796875 -4.96875 C 4.878906 -5.070312 4.921875 -5.210938 4.921875 -5.390625 C 4.921875 -5.628906 4.835938 -5.8125 4.671875 -5.9375 C 4.503906 -6.0625 4.222656 -6.125 3.828125 -6.125 C 3.410156 -6.125 3.015625 -6.03125 2.640625 -5.84375 C 2.265625 -5.65625 1.941406 -5.410156 1.671875 -5.109375 L 1.53125 -5.109375 L 0.734375 -6.296875 C 1.117188 -6.722656 1.582031 -7.050781 2.125 -7.28125 C 2.675781 -7.519531 3.273438 -7.640625 3.921875 -7.640625 C 4.921875 -7.640625 5.640625 -7.425781 6.078125 -7 C 6.523438 -6.582031 6.75 -5.988281 6.75 -5.21875 L 6.75 -1.953125 C 6.75 -1.617188 6.894531 -1.453125 7.1875 -1.453125 C 7.300781 -1.453125 7.414062 -1.472656 7.53125 -1.515625 L 7.625 -1.484375 L 7.75 -0.171875 C 7.644531 -0.109375 7.5 -0.0546875 7.3125 -0.015625 C 7.132812 0.0234375 6.929688 0.046875 6.703125 0.046875 C 6.253906 0.046875 5.90625 -0.0351562 5.65625 -0.203125 C 5.40625 -0.378906 5.226562 -0.648438 5.125 -1.015625 L 4.96875 -1.03125 C 4.601562 -0.25 3.921875 0.140625 2.921875 0.140625 Z M 3.515625 -1.265625 C 3.953125 -1.265625 4.300781 -1.410156 4.5625 -1.703125 C 4.820312 -1.992188 4.953125 -2.398438 4.953125 -2.921875 L 4.953125 -3.6875 L 4.828125 -3.71875 C 4.710938 -3.625 4.5625 -3.546875 4.375 -3.484375 C 4.195312 -3.421875 3.9375 -3.359375 3.59375 -3.296875 C 3.1875 -3.234375 2.890625 -3.117188 2.703125 -2.953125 C 2.523438 -2.785156 2.4375 -2.550781 2.4375 -2.25 C 2.4375 -1.925781 2.53125 -1.679688 2.71875 -1.515625 C 2.914062 -1.347656 3.179688 -1.265625 3.515625 -1.265625 Z M 3.515625 -1.265625 "/></g></g></g><g fill="#ffffff" fill-opacity="1"><g transform="translate(76.674654, 20.671875)"><g><path d="M 1.078125 0 L 1.078125 -7.5 L 2.890625 -7.5 L 2.890625 -6.484375 L 3.03125 -6.46875 C 3.28125 -6.863281 3.566406 -7.15625 3.890625 -7.34375 C 4.222656 -7.539062 4.644531 -7.640625 5.15625 -7.640625 C 5.71875 -7.640625 6.171875 -7.523438 6.515625 -7.296875 C 6.859375 -7.078125 7.113281 -6.753906 7.28125 -6.328125 L 7.421875 -6.328125 C 7.648438 -6.773438 7.945312 -7.101562 8.3125 -7.3125 C 8.675781 -7.53125 9.128906 -7.640625 9.671875 -7.640625 C 11.222656 -7.640625 12 -6.773438 12 -5.046875 L 12 0 L 10.125 0 L 10.125 -4.8125 C 10.125 -5.25 10.035156 -5.5625 9.859375 -5.75 C 9.691406 -5.945312 9.414062 -6.046875 9.03125 -6.046875 C 8 -6.046875 7.484375 -5.359375 7.484375 -3.984375 L 7.484375 0 L 5.59375 0 L 5.59375 -4.8125 C 5.59375 -5.25 5.503906 -5.5625 5.328125 -5.75 C 5.160156 -5.945312 4.882812 -6.046875 4.5 -6.046875 C 4.019531 -6.046875 3.644531 -5.882812 3.375 -5.5625 C 3.101562 -5.238281 2.96875 -4.722656 2.96875 -4.015625 L 2.96875 0 Z M 1.078125 0 "/></g></g></g><g fill="#ffffff" fill-opacity="1"><g transform="translate(89.646373, 20.671875)"><g><path d="M 2.015625 -8.390625 C 1.679688 -8.390625 1.40625 -8.492188 1.1875 -8.703125 C 0.976562 -8.910156 0.875 -9.175781 0.875 -9.5 C 0.875 -9.820312 0.976562 -10.085938 1.1875 -10.296875 C 1.40625 -10.503906 1.679688 -10.609375 2.015625 -10.609375 C 2.242188 -10.609375 2.445312 -10.554688 2.625 -10.453125 C 2.800781 -10.359375 2.9375 -10.226562 3.03125 -10.0625 C 3.132812 -9.90625 3.1875 -9.71875 3.1875 -9.5 C 3.1875 -9.289062 3.132812 -9.101562 3.03125 -8.9375 C 2.9375 -8.769531 2.800781 -8.632812 2.625 -8.53125 C 2.445312 -8.4375 2.242188 -8.390625 2.015625 -8.390625 Z M 1.078125 0 L 1.078125 -7.5 L 2.96875 -7.5 L 2.96875 0 Z M 1.078125 0 "/></g></g></g><g fill="#ffffff" fill-opacity="1"><g transform="translate(93.684739, 20.671875)"><g><path d="M 1.3125 0 L 1.3125 -6.015625 L 0.25 -6.015625 L 0.25 -7.5 L 1.3125 -7.5 C 1.238281 -7.820312 1.203125 -8.117188 1.203125 -8.390625 C 1.203125 -8.867188 1.304688 -9.273438 1.515625 -9.609375 C 1.734375 -9.953125 2.046875 -10.210938 2.453125 -10.390625 C 2.867188 -10.566406 3.359375 -10.65625 3.921875 -10.65625 C 4.742188 -10.65625 5.359375 -10.507812 5.765625 -10.21875 L 5.328125 -8.84375 L 5.1875 -8.8125 C 4.90625 -9.007812 4.546875 -9.109375 4.109375 -9.109375 C 3.765625 -9.109375 3.507812 -9.023438 3.34375 -8.859375 C 3.175781 -8.691406 3.09375 -8.46875 3.09375 -8.1875 C 3.09375 -8.0625 3.097656 -7.945312 3.109375 -7.84375 C 3.128906 -7.738281 3.15625 -7.625 3.1875 -7.5 L 5.34375 -7.5 L 5.34375 -6.015625 L 3.1875 -6.015625 L 3.1875 0 Z M 1.3125 0 "/></g></g></g><g fill="#ffffff" fill-opacity="1"><g transform="translate(99.09642, 20.671875)"><g><path d="M 1.65625 3.1875 C 1.332031 3.1875 1.039062 3.160156 0.78125 3.109375 C 0.519531 3.054688 0.3125 2.988281 0.15625 2.90625 L 0.453125 1.390625 L 0.578125 1.34375 C 0.679688 1.40625 0.816406 1.453125 0.984375 1.484375 C 1.160156 1.523438 1.335938 1.546875 1.515625 1.546875 C 1.816406 1.546875 2.066406 1.503906 2.265625 1.421875 C 2.460938 1.347656 2.628906 1.21875 2.765625 1.03125 C 2.910156 0.84375 3.039062 0.585938 3.15625 0.265625 L 0.15625 -7.5 L 2.140625 -7.5 L 4 -2.28125 L 4.15625 -2.28125 L 5.96875 -7.5 L 7.890625 -7.5 L 4.875 0.46875 C 4.632812 1.113281 4.367188 1.628906 4.078125 2.015625 C 3.796875 2.410156 3.457031 2.703125 3.0625 2.890625 C 2.675781 3.085938 2.207031 3.1875 1.65625 3.1875 Z M 1.65625 3.1875 "/></g></g></g><g fill="#ffffff" fill-opacity="1"><g transform="translate(107.145957, 20.671875)"><g><path d="M 4.765625 -4 L 0.59375 -4 L 0.59375 -5.65625 L 4.765625 -5.65625 Z M 4.765625 -4 "/></g></g></g><g fill="#ffffff" fill-opacity="1"><g transform="translate(112.510054, 20.671875)"><g><path d="M 2.015625 -8.390625 C 1.679688 -8.390625 1.40625 -8.492188 1.1875 -8.703125 C 0.976562 -8.910156 0.875 -9.175781 0.875 -9.5 C 0.875 -9.820312 0.976562 -10.085938 1.1875 -10.296875 C 1.40625 -10.503906 1.679688 -10.609375 2.015625 -10.609375 C 2.242188 -10.609375 2.445312 -10.554688 2.625 -10.453125 C 2.800781 -10.359375 2.9375 -10.226562 3.03125 -10.0625 C 3.132812 -9.90625 3.1875 -9.71875 3.1875 -9.5 C 3.1875 -9.289062 3.132812 -9.101562 3.03125 -8.9375 C 2.9375 -8.769531 2.800781 -8.632812 2.625 -8.53125 C 2.445312 -8.4375 2.242188 -8.390625 2.015625 -8.390625 Z M 1.078125 0 L 1.078125 -7.5 L 2.96875 -7.5 L 2.96875 0 Z M 1.078125 0 "/></g></g></g><g fill="#ffffff" fill-opacity="1"><g transform="translate(116.548419, 20.671875)"><g><path d="M 4.359375 0.140625 C 3.617188 0.140625 2.972656 -0.0078125 2.421875 -0.3125 C 1.867188 -0.613281 1.4375 -1.054688 1.125 -1.640625 C 0.820312 -2.222656 0.671875 -2.925781 0.671875 -3.75 C 0.671875 -4.570312 0.820312 -5.273438 1.125 -5.859375 C 1.4375 -6.441406 1.867188 -6.882812 2.421875 -7.1875 C 2.972656 -7.488281 3.617188 -7.640625 4.359375 -7.640625 C 5.085938 -7.640625 5.726562 -7.488281 6.28125 -7.1875 C 6.84375 -6.882812 7.273438 -6.441406 7.578125 -5.859375 C 7.890625 -5.273438 8.046875 -4.570312 8.046875 -3.75 C 8.046875 -2.925781 7.890625 -2.222656 7.578125 -1.640625 C 7.273438 -1.054688 6.84375 -0.613281 6.28125 -0.3125 C 5.726562 -0.0078125 5.085938 0.140625 4.359375 0.140625 Z M 4.359375 -1.453125 C 5.523438 -1.453125 6.109375 -2.21875 6.109375 -3.75 C 6.109375 -4.539062 5.957031 -5.117188 5.65625 -5.484375 C 5.351562 -5.859375 4.921875 -6.046875 4.359375 -6.046875 C 3.191406 -6.046875 2.609375 -5.28125 2.609375 -3.75 C 2.609375 -2.21875 3.191406 -1.453125 4.359375 -1.453125 Z M 4.359375 -1.453125 "/></g></g></g></svg>